<mxfile host="app.diagrams.net" modified="2021-05-12T01:52:27.501Z" agent="5.0 (Macintosh; Intel Mac OS X 10_15_7) AppleWebKit/537.36 (KHTML, like Gecko) Chrome/90.0.4430.93 Safari/537.36" etag="GzXrr8UPPqRiBP29bzre" version="14.6.11" type="github">
  <diagram id="C5RBs43oDa-KdzZeNtuy" name="Page-1">
    <mxGraphModel dx="1961" dy="739" grid="1" gridSize="10" guides="1" tooltips="1" connect="1" arrows="1" fold="1" page="1" pageScale="1" pageWidth="827" pageHeight="1169" math="0" shadow="0">
      <root>
        <mxCell id="WIyWlLk6GJQsqaUBKTNV-0" />
        <mxCell id="WIyWlLk6GJQsqaUBKTNV-1" parent="WIyWlLk6GJQsqaUBKTNV-0" />
        <mxCell id="GwbTFYh4FsHx047ZUjlf-0" value="app" style="swimlane;" vertex="1" parent="WIyWlLk6GJQsqaUBKTNV-1">
          <mxGeometry x="240" y="110" width="200" height="80" as="geometry" />
        </mxCell>
        <mxCell id="GwbTFYh4FsHx047ZUjlf-7" value="DCK" style="swimlane;direction=east;startSize=18;" vertex="1" parent="WIyWlLk6GJQsqaUBKTNV-1">
          <mxGeometry x="-150" y="270" width="278" height="163" as="geometry" />
        </mxCell>
        <mxCell id="GwbTFYh4FsHx047ZUjlf-8" value="product:" style="text;html=1;align=center;verticalAlign=middle;resizable=0;points=[];autosize=1;strokeColor=none;" vertex="1" parent="GwbTFYh4FsHx047ZUjlf-7">
          <mxGeometry x="20" y="43" width="60" height="20" as="geometry" />
        </mxCell>
        <mxCell id="GwbTFYh4FsHx047ZUjlf-10" value="https://prd-cn-ccapi.genesis.com" style="text;html=1;align=center;verticalAlign=middle;resizable=0;points=[];autosize=1;strokeColor=none;" vertex="1" parent="GwbTFYh4FsHx047ZUjlf-7">
          <mxGeometry x="37.5" y="73" width="190" height="20" as="geometry" />
        </mxCell>
        <mxCell id="GwbTFYh4FsHx047ZUjlf-11" value="dev:" style="text;html=1;align=center;verticalAlign=middle;resizable=0;points=[];autosize=1;strokeColor=none;" vertex="1" parent="GwbTFYh4FsHx047ZUjlf-7">
          <mxGeometry x="20" y="103" width="40" height="20" as="geometry" />
        </mxCell>
        <mxCell id="GwbTFYh4FsHx047ZUjlf-12" value="https://stg-cn-ccapi.genesis.com:8081" style="text;html=1;align=center;verticalAlign=middle;resizable=0;points=[];autosize=1;strokeColor=none;" vertex="1" parent="GwbTFYh4FsHx047ZUjlf-7">
          <mxGeometry x="37.5" y="123" width="220" height="20" as="geometry" />
        </mxCell>
        <mxCell id="GwbTFYh4FsHx047ZUjlf-15" value="GA" style="swimlane;" vertex="1" parent="WIyWlLk6GJQsqaUBKTNV-1">
          <mxGeometry x="550" y="276.5" width="260" height="170" as="geometry" />
        </mxCell>
        <mxCell id="GwbTFYh4FsHx047ZUjlf-17" value="product:" style="text;html=1;align=center;verticalAlign=middle;resizable=0;points=[];autosize=1;strokeColor=none;" vertex="1" parent="GwbTFYh4FsHx047ZUjlf-15">
          <mxGeometry x="20" y="43" width="60" height="20" as="geometry" />
        </mxCell>
        <mxCell id="GwbTFYh4FsHx047ZUjlf-18" value="dev:" style="text;html=1;align=center;verticalAlign=middle;resizable=0;points=[];autosize=1;strokeColor=none;" vertex="1" parent="GwbTFYh4FsHx047ZUjlf-15">
          <mxGeometry x="20" y="106" width="40" height="20" as="geometry" />
        </mxCell>
        <mxCell id="GwbTFYh4FsHx047ZUjlf-20" value="https://accounts.genesismotor.cn" style="text;html=1;align=center;verticalAlign=middle;resizable=0;points=[];autosize=1;strokeColor=none;" vertex="1" parent="GwbTFYh4FsHx047ZUjlf-15">
          <mxGeometry x="40" y="73" width="190" height="20" as="geometry" />
        </mxCell>
        <mxCell id="GwbTFYh4FsHx047ZUjlf-19" value="http://124.204.39.5" style="text;html=1;align=center;verticalAlign=middle;resizable=0;points=[];autosize=1;strokeColor=none;" vertex="1" parent="GwbTFYh4FsHx047ZUjlf-15">
          <mxGeometry x="50" y="133" width="120" height="20" as="geometry" />
        </mxCell>
        <mxCell id="GwbTFYh4FsHx047ZUjlf-16" value="" style="endArrow=classic;startArrow=classic;html=1;" edge="1" parent="WIyWlLk6GJQsqaUBKTNV-1">
          <mxGeometry width="50" height="50" relative="1" as="geometry">
            <mxPoint x="-40" y="270" as="sourcePoint" />
            <mxPoint x="220" y="150" as="targetPoint" />
            <Array as="points">
              <mxPoint x="-40" y="150" />
            </Array>
          </mxGeometry>
        </mxCell>
        <mxCell id="GwbTFYh4FsHx047ZUjlf-21" value="" style="endArrow=classic;startArrow=classic;html=1;" edge="1" parent="WIyWlLk6GJQsqaUBKTNV-1">
          <mxGeometry width="50" height="50" relative="1" as="geometry">
            <mxPoint x="680" y="270" as="sourcePoint" />
            <mxPoint x="470" y="150" as="targetPoint" />
            <Array as="points">
              <mxPoint x="680" y="150" />
            </Array>
          </mxGeometry>
        </mxCell>
        <mxCell id="GwbTFYh4FsHx047ZUjlf-26" value="Digitalkeysdk" style="swimlane;fontStyle=1;align=center;verticalAlign=top;childLayout=stackLayout;horizontal=1;startSize=26;horizontalStack=0;resizeParent=1;resizeParentMax=0;resizeLast=0;collapsible=1;marginBottom=0;" vertex="1" parent="WIyWlLk6GJQsqaUBKTNV-1">
          <mxGeometry x="200" y="280" width="300" height="160" as="geometry" />
        </mxCell>
        <mxCell id="GwbTFYh4FsHx047ZUjlf-27" value="unblock(url,id)" style="text;strokeColor=none;fillColor=none;align=left;verticalAlign=top;spacingLeft=4;spacingRight=4;overflow=hidden;rotatable=0;points=[[0,0.5],[1,0.5]];portConstraint=eastwest;" vertex="1" parent="GwbTFYh4FsHx047ZUjlf-26">
          <mxGeometry y="26" width="300" height="26" as="geometry" />
        </mxCell>
        <mxCell id="GwbTFYh4FsHx047ZUjlf-28" value="" style="line;strokeWidth=1;fillColor=none;align=left;verticalAlign=middle;spacingTop=-1;spacingLeft=3;spacingRight=3;rotatable=0;labelPosition=right;points=[];portConstraint=eastwest;" vertex="1" parent="GwbTFYh4FsHx047ZUjlf-26">
          <mxGeometry y="52" width="300" height="8" as="geometry" />
        </mxCell>
        <mxCell id="GwbTFYh4FsHx047ZUjlf-29" value="product:&#xa;    url:https://pretam.t-base.co.kr:9443/pretam&#xa;    id:GMC_CN_DKC&#xa;dev:&#xa;    url:http://211.54.75.20:8080/pretam&#xa;    id:GMC_CN_DKC_TEST&#xa;" style="text;strokeColor=none;fillColor=none;align=left;verticalAlign=top;spacingLeft=4;spacingRight=4;overflow=hidden;rotatable=0;points=[[0,0.5],[1,0.5]];portConstraint=eastwest;" vertex="1" parent="GwbTFYh4FsHx047ZUjlf-26">
          <mxGeometry y="60" width="300" height="100" as="geometry" />
        </mxCell>
        <mxCell id="GwbTFYh4FsHx047ZUjlf-30" value="" style="endArrow=classic;html=1;exitX=0.5;exitY=1;exitDx=0;exitDy=0;entryX=0.467;entryY=-0.031;entryDx=0;entryDy=0;entryPerimeter=0;" edge="1" parent="WIyWlLk6GJQsqaUBKTNV-1" source="GwbTFYh4FsHx047ZUjlf-0" target="GwbTFYh4FsHx047ZUjlf-26">
          <mxGeometry width="50" height="50" relative="1" as="geometry">
            <mxPoint x="370" y="380" as="sourcePoint" />
            <mxPoint x="350" y="270" as="targetPoint" />
          </mxGeometry>
        </mxCell>
      </root>
    </mxGraphModel>
  </diagram>
</mxfile>
